<?xml version="1.0" encoding="UTF-8"?>
<svg xmlns="http://www.w3.org/2000/svg" xmlns:xlink="http://www.w3.org/1999/xlink" width="250pt" height="250pt" viewBox="0 0 250 250" version="1.1">
<g id="surface1">
<path style=" stroke:none;fill-rule:nonzero;fill:rgb(34.117647%,33.72549%,36.078431%);fill-opacity:1;" d="M 4.308594 209.050781 L 125 209.050781 L 125 226.292969 L 4.308594 226.292969 Z M 4.308594 209.050781 "/>
<path style=" stroke:none;fill-rule:nonzero;fill:rgb(47.058824%,46.27451%,50.196078%);fill-opacity:1;" d="M 125 209.050781 L 245.691406 209.050781 L 245.691406 226.292969 L 125 226.292969 Z M 125 209.050781 "/>
<path style=" stroke:none;fill-rule:nonzero;fill:rgb(100%,31.372549%,13.72549%);fill-opacity:1;" d="M 206.898438 66.808594 C 206.898438 109.914062 125 153.019531 125 153.019531 C 108.496094 144.011719 92.894531 133.449219 78.40625 121.464844 C 59.957031 105.949219 43.101562 86.378906 43.101562 66.808594 C 43.089844 46.707031 56.984375 29.261719 76.589844 24.78125 C 96.191406 20.304688 116.28125 29.984375 125 48.105469 C 132.175781 33.199219 147.253906 23.722656 163.792969 23.707031 C 170.570312 23.691406 177.25 25.300781 183.273438 28.410156 C 197.765625 35.726562 206.902344 50.574219 206.898438 66.808594 Z M 206.898438 66.808594 "/>
<path style=" stroke:none;fill-rule:nonzero;fill:rgb(90.196078%,28.235294%,12.156863%);fill-opacity:1;" d="M 206.898438 66.808594 C 206.898438 109.914062 125 153.019531 125 153.019531 C 108.496094 144.011719 92.894531 133.449219 78.40625 121.464844 C 120.402344 99.421875 156.394531 67.480469 183.273438 28.410156 C 197.765625 35.726562 206.902344 50.574219 206.898438 66.808594 Z M 206.898438 66.808594 "/>
<path style=" stroke:none;fill-rule:nonzero;fill:rgb(24.313725%,23.921569%,25.882353%);fill-opacity:1;" d="M 4.308594 217.671875 L 125 217.671875 L 125 226.292969 L 4.308594 226.292969 Z M 4.308594 217.671875 "/>
<path style=" stroke:none;fill-rule:nonzero;fill:rgb(34.117647%,33.72549%,36.078431%);fill-opacity:1;" d="M 125 217.671875 L 245.691406 217.671875 L 245.691406 226.292969 L 125 226.292969 Z M 125 217.671875 "/>
<path style=" stroke:none;fill-rule:nonzero;fill:rgb(0%,0%,0%);fill-opacity:1;" d="M 245.691406 204.742188 L 131.121094 204.742188 C 141.289062 194.316406 162.304688 187.5 185.34375 187.5 C 204.742188 187.5 223.191406 192.378906 234.652344 200.546875 L 239.65625 193.535156 C 226.597656 184.222656 206.808594 178.878906 185.34375 178.878906 C 177.128906 178.863281 168.933594 179.691406 160.890625 181.34375 C 167.175781 178.761719 173.683594 176.75 180.332031 175.339844 C 199.328125 171.304688 218.371094 172.25 231.277344 177.855469 L 234.722656 169.949219 C 220.015625 163.558594 199.542969 162.449219 178.550781 166.929688 C 154.738281 171.980469 134.746094 183.316406 125 196.792969 C 115.253906 183.316406 95.261719 171.96875 71.460938 166.910156 C 50.464844 162.445312 29.988281 163.558594 15.289062 169.925781 L 18.738281 177.832031 C 31.667969 172.230469 50.691406 171.285156 69.679688 175.320312 C 76.328125 176.730469 82.835938 178.738281 89.121094 181.320312 C 81.070312 179.675781 72.871094 178.855469 64.65625 178.878906 C 43.191406 178.878906 23.402344 184.222656 10.34375 193.535156 L 15.347656 200.554688 C 26.808594 192.378906 45.257812 187.5 64.65625 187.5 C 87.695312 187.5 108.710938 194.316406 118.878906 204.742188 L 4.308594 204.742188 C 1.929688 204.742188 0 206.667969 0 209.050781 L 0 226.292969 C 0 228.671875 1.929688 230.601562 4.308594 230.601562 L 245.691406 230.601562 C 248.070312 230.601562 250 228.671875 250 226.292969 L 250 209.050781 C 250 206.667969 248.070312 204.742188 245.691406 204.742188 Z M 8.621094 213.363281 L 120.691406 213.363281 L 120.691406 221.980469 L 8.621094 221.980469 Z M 241.378906 221.980469 L 129.308594 221.980469 L 129.308594 213.363281 L 241.378906 213.363281 Z M 241.378906 221.980469 "/>
<path style=" stroke:none;fill-rule:nonzero;fill:rgb(0%,0%,0%);fill-opacity:1;" d="M 122.992188 156.832031 C 124.246094 157.492188 125.75 157.492188 127.003906 156.832031 C 130.445312 155.023438 211.207031 111.996094 211.207031 66.808594 C 211.175781 40.636719 189.96875 19.425781 163.792969 19.398438 C 148.324219 19.335938 133.816406 26.886719 125 39.597656 C 116.183594 26.886719 101.675781 19.335938 86.207031 19.398438 C 60.03125 19.425781 38.824219 40.636719 38.792969 66.808594 C 38.792969 111.996094 119.550781 155.023438 122.992188 156.832031 Z M 86.207031 28.019531 C 101.121094 27.972656 114.71875 36.535156 121.121094 50 C 121.925781 51.382812 123.402344 52.234375 125 52.234375 C 126.597656 52.234375 128.074219 51.382812 128.878906 50 C 136.71875 33.691406 154.796875 24.976562 172.4375 29 C 190.082031 33.023438 202.589844 48.71875 202.585938 66.808594 C 202.585938 103.203125 137.371094 141.222656 125 148.101562 C 112.617188 141.222656 47.414062 103.230469 47.414062 66.808594 C 47.4375 45.398438 64.792969 28.042969 86.207031 28.019531 Z M 86.207031 28.019531 "/>
</g>
</svg>
